<mxfile host="app.diagrams.net" modified="2020-06-05T10:18:00.971Z" agent="5.0 (Windows)" etag="fBTzZ6docqyDzOnsFoH8" version="13.1.14" type="github">
  <diagram id="u06nbaFKTUvreZjOn7oM" name="Page-1">
    <mxGraphModel dx="870" dy="557" grid="1" gridSize="10" guides="1" tooltips="1" connect="1" arrows="1" fold="1" page="1" pageScale="1" pageWidth="850" pageHeight="1100" math="0" shadow="0">
      <root>
        <mxCell id="0" />
        <mxCell id="1" parent="0" />
        <mxCell id="omQ0v4F8YuOl9oSkSna9-1" value="Applikation" style="rounded=0;whiteSpace=wrap;html=1;" vertex="1" parent="1">
          <mxGeometry x="160" y="120" width="120" height="60" as="geometry" />
        </mxCell>
        <mxCell id="omQ0v4F8YuOl9oSkSna9-2" value="Transport" style="rounded=0;whiteSpace=wrap;html=1;" vertex="1" parent="1">
          <mxGeometry x="160" y="180" width="120" height="40" as="geometry" />
        </mxCell>
        <mxCell id="omQ0v4F8YuOl9oSkSna9-3" value="Internet" style="rounded=0;whiteSpace=wrap;html=1;" vertex="1" parent="1">
          <mxGeometry x="160" y="220" width="120" height="40" as="geometry" />
        </mxCell>
        <mxCell id="omQ0v4F8YuOl9oSkSna9-5" value="Network interface" style="rounded=0;whiteSpace=wrap;html=1;" vertex="1" parent="1">
          <mxGeometry x="160" y="260" width="120" height="40" as="geometry" />
        </mxCell>
        <mxCell id="omQ0v4F8YuOl9oSkSna9-6" value="Applikation" style="rounded=0;whiteSpace=wrap;html=1;" vertex="1" parent="1">
          <mxGeometry x="320" y="120" width="120" height="20" as="geometry" />
        </mxCell>
        <mxCell id="omQ0v4F8YuOl9oSkSna9-7" value="Transport" style="rounded=0;whiteSpace=wrap;html=1;" vertex="1" parent="1">
          <mxGeometry x="320" y="180" width="120" height="40" as="geometry" />
        </mxCell>
        <mxCell id="omQ0v4F8YuOl9oSkSna9-8" value="Network" style="rounded=0;whiteSpace=wrap;html=1;" vertex="1" parent="1">
          <mxGeometry x="320" y="220" width="120" height="40" as="geometry" />
        </mxCell>
        <mxCell id="omQ0v4F8YuOl9oSkSna9-9" value="Data Link" style="rounded=0;whiteSpace=wrap;html=1;" vertex="1" parent="1">
          <mxGeometry x="320" y="260" width="120" height="40" as="geometry" />
        </mxCell>
        <mxCell id="omQ0v4F8YuOl9oSkSna9-10" value="PrÃ¦sentation" style="rounded=0;whiteSpace=wrap;html=1;" vertex="1" parent="1">
          <mxGeometry x="320" y="140" width="120" height="20" as="geometry" />
        </mxCell>
        <mxCell id="omQ0v4F8YuOl9oSkSna9-11" value="Session" style="rounded=0;whiteSpace=wrap;html=1;" vertex="1" parent="1">
          <mxGeometry x="320" y="160" width="120" height="20" as="geometry" />
        </mxCell>
        <mxCell id="omQ0v4F8YuOl9oSkSna9-12" value="OSI" style="text;html=1;strokeColor=none;fillColor=none;align=center;verticalAlign=middle;whiteSpace=wrap;rounded=0;fontStyle=1" vertex="1" parent="1">
          <mxGeometry x="360" y="100" width="40" height="20" as="geometry" />
        </mxCell>
        <mxCell id="omQ0v4F8YuOl9oSkSna9-13" value="TCP/IP" style="text;html=1;strokeColor=none;fillColor=none;align=center;verticalAlign=middle;whiteSpace=wrap;rounded=0;fontStyle=1" vertex="1" parent="1">
          <mxGeometry x="200" y="100" width="40" height="20" as="geometry" />
        </mxCell>
      </root>
    </mxGraphModel>
  </diagram>
</mxfile>
